<svg width="20" height="20" xmlns="http://www.w3.org/2000/svg" fill="none">

 <g>
  <title>Layer 1</title>
  <path id="svg_1" fill="grey" d="m20,10c0,5.5228 -4.4772,10 -10,10c-5.52285,0 -10,-4.4772 -10,-10c0,-5.52285 4.47715,-10 10,-10c5.5228,0 10,4.47715 10,10zm-14.995,-3c0,-0.55 0.445,-1 0.995,-1l8,0c0.55,0 1,0.45 1,1l0,6c0,0.55 -0.45,1 -1,1l-8,0c-0.55,0 -1,-0.45 -1,-1l0.005,-6zm4.995,3.5l-3.99999,-2.50003l0,5.00003l7.99999,0l0,-5.00003l-4,2.50003zm0,-1l-3.99999,-2.49999l7.99999,0l-4,2.49999z" clip-rule="evenodd" fill-rule="evenodd"/>
 </g>
</svg>