<svg width="36" height="22" xmlns="http://www.w3.org/2000/svg" xml:space="preserve" version="1.1">

 <g>
  <title>Layer 1</title>
  <path id="svg_2" fill="grey" d="m30.0295,14.4142c0.663,0 1.2012,0.5383 1.2012,1.2012c0,0.663 -0.5383,1.2012 -1.2012,1.2012c-0.663,0 -1.2012,-0.5383 -1.2012,-1.2012c0,-0.663 0.5382,-1.2012 1.2012,-1.2012zm-16.8165,0l7.207,0c0.663,0 1.2012,0.5383 1.2012,1.2012c0,0.663 -0.5382,1.2012 -1.2011,1.2012l-7.2071,0c-0.663,0 -1.2012,-0.5383 -1.2012,-1.2012c0,-0.663 0.5383,-1.2012 1.2012,-1.2012zm-2.4023,-7.207c0.6629,0 1.2011,0.5382 1.2011,1.2011l0,2.4024c0,0.663 -0.5382,1.2012 -1.2012,1.2012c-0.6629,0 -1.2012,-0.5383 -1.2012,-1.2012l0,-2.4024c0,-0.6629 0.5383,-1.2011 1.2012,-1.2011l0.0001,0z" class="st1"/>
  <path id="svg_3" fill="grey" d="m4.8058,8.3465c0.0326,-1.9605 1.6343,-3.5417 3.6025,-3.5417c0.9225,0 1.7645,0.3474 2.4023,0.9183c0.6379,-0.571 1.4799,-0.9183 2.4024,-0.9183c1.9681,0 3.5699,1.5812 3.6025,3.5417c0.001,0.0204 0.001,0.0412 0.001,0.0618l0,2.4024c0,0.663 -0.5382,1.2012 -1.2011,1.2012c-0.663,0 -1.2012,-0.5383 -1.2012,-1.2012l0,-2.4024c0,-0.6629 -0.5383,-1.2011 -1.2012,-1.2011s-1.2012,0.5382 -1.2012,1.2011l0,2.4024c0,0.663 -0.5382,1.2012 -1.2012,1.2012c-0.6629,0 -1.2012,-0.5383 -1.2012,-1.2012l0,-2.4024c0,-0.6629 -0.5382,-1.2011 -1.2011,-1.2011s-1.2012,0.5382 -1.2012,1.2011l0,2.4024c0,0.663 -0.5383,1.2012 -1.2012,1.2012c-0.663,0 -1.2012,-0.5383 -1.2012,-1.2012l0,-2.4024c0,-0.0206 0.0005,-0.0413 0.0011,-0.0618zm21.6202,3.6654l0,3.6035c0,0.663 -0.5383,1.2012 -1.2012,1.2012c-0.663,0 -1.2012,-0.5383 -1.2012,-1.2012l0,-3.6035l-3.4619,0c-0.7411,0 -1.343,-0.5383 -1.343,-1.2012c0,-0.663 0.6019,-1.2012 1.343,-1.2012l9.326,0c0.741,0 1.3428,0.5383 1.3428,1.2012c0,0.663 -0.6017,1.2012 -1.3429,1.2012l-3.4617,0l0.0001,0zm-1.2013,-7.2071l4.8048,0c0.663,0 1.2012,0.5383 1.2012,1.2012c0,0.663 -0.5383,1.2012 -1.2012,1.2012l-4.8048,0c-0.663,0 -1.2012,-0.5383 -1.2012,-1.2012c0,-0.663 0.5382,-1.2012 1.2012,-1.2012zm-19.2188,9.6094l2.4024,0c0.6629,0 1.2011,0.5383 1.2011,1.2012c0,0.663 -0.5382,1.2012 -1.2011,1.2012l-2.4024,0c-0.663,0 -1.2012,-0.5383 -1.2012,-1.2012c0,-0.663 0.5383,-1.2012 1.2012,-1.2012zm13.8136,-9.6094l0.6006,0c0.6629,0 1.2011,0.5383 1.2011,1.2012c0,0.663 -0.5382,1.2012 -1.2011,1.2012l-0.6006,0c-0.663,0 -1.2012,-0.5383 -1.2012,-1.2012c0,-0.663 0.5382,-1.2012 1.2012,-1.2012z" class="st1"/>
  <path stroke="null" id="svg_4" fill="grey" d="m2.4024,14.61581l-2.4024,0l0,-8.52581c0,-3.36116 2.6911,-6.09001 6.006,-6.09001l24.0235,0c3.3148,0 6.0059,2.72884 6.0059,6.09001l0,9.74381c0,3.36116 -2.6911,6.0899 -6.006,6.0899l-24.0234,0c-3.3148,0 -6.0059,-2.72874 -6.0059,-6.0899l0,-2.4359l2.4024,0l0,2.4359c0,2.01662 1.6147,3.6539 3.6035,3.6539l24.0236,0c1.9888,0 3.6035,-1.63728 3.6035,-3.6539l0,-9.74381c0,-2.01662 -1.6147,-3.6539 -3.6035,-3.6539l-24.0237,0c-1.9888,0 -3.6035,1.63728 -3.6035,3.6539l0,8.52581z" class="st1"/>
 </g>
</svg>